<svg version="1.1" id="Layer_1" xmlns="http://www.w3.org/2000/svg" xmlns:xlink="http://www.w3.org/1999/xlink" x="0px" y="0px"
	 width="50%" viewBox="0 0 1200 1200" enable-background="new 0 0 1200 1200" xml:space="preserve">
<path fill="#1060D3" opacity="0.000000" stroke="none" 
	d="
M579.000000,1201.000000 
	C386.000000,1201.000000 193.500000,1201.000000 1.000000,1201.000000 
	C1.000000,801.000000 1.000000,401.000000 1.000000,1.000000 
	C401.000000,1.000000 801.000000,1.000000 1201.000000,1.000000 
	C1201.000000,401.000000 1201.000000,801.000000 1201.000000,1201.000000 
	C993.833313,1201.000000 786.666687,1201.000000 579.000000,1201.000000 
M609.079407,401.809692 
	C606.572571,404.544556 604.065735,407.279388 601.467529,410.113922 
	C600.378357,409.101868 599.840332,408.168121 599.169556,408.060211 
	C597.185547,407.741241 595.149170,407.748474 593.133240,407.628113 
	C593.498169,409.507172 593.461121,411.606903 594.338379,413.204620 
	C595.257629,414.878662 597.046875,416.078705 598.469666,417.471771 
	C600.530579,419.489532 602.433350,419.354889 604.471863,417.282227 
	C609.591370,412.076904 614.977051,407.119720 619.861694,401.707092 
	C620.994507,400.451813 620.551819,397.774689 620.834045,395.751801 
	C618.790344,396.093750 616.603455,396.092224 614.741089,396.868896 
	C612.646790,397.742249 610.845337,399.317749 609.417908,399.720520 
	C610.702942,395.995514 608.995178,394.277130 605.434021,394.188293 
	C600.444885,394.063751 595.437500,393.949310 590.460938,394.233917 
	C584.817688,394.556671 581.371338,397.621979 581.121277,402.745880 
	C580.813477,409.053558 580.754639,415.405609 581.142517,421.704346 
	C581.427246,426.328186 584.383179,429.593903 589.056580,429.953156 
	C595.009888,430.410706 601.034424,430.297791 607.008362,430.013275 
	C611.330078,429.807465 615.304199,425.648132 614.964478,421.904083 
	C614.841370,420.547455 613.672119,418.581146 612.552551,418.220581 
	C611.463623,417.869781 608.848755,418.957092 608.605591,419.867401 
	C607.693970,423.281189 605.361572,423.050018 602.818665,422.997314 
	C599.491699,422.928314 596.151672,422.814819 592.836670,423.025970 
	C589.465088,423.240692 587.930664,422.154541 588.135925,418.549744 
	C588.372009,414.402649 588.376648,410.221039 588.135681,406.074524 
	C587.928223,402.505463 589.422363,401.472748 592.791870,401.478088 
	C598.086365,401.486481 603.381531,401.066742 609.079407,401.809692 
M609.318176,458.654327 
	C610.741394,455.064575 609.412231,453.116425 605.666504,453.024689 
	C600.510498,452.898315 595.340027,452.813751 590.192078,453.056396 
	C584.590942,453.320435 581.232605,456.729401 581.041016,462.281982 
	C580.846008,467.933807 580.854126,473.602051 581.034180,479.254761 
	C581.213867,484.894073 584.330872,488.349701 589.968750,488.719940 
	C595.435547,489.078949 600.960205,489.044006 606.430847,488.711151 
	C611.209717,488.420349 615.045654,484.887360 614.873108,481.092194 
	C614.806396,479.623260 613.570374,477.696472 612.302246,476.985077 
	C611.542969,476.559082 609.658997,478.023499 608.337769,478.743256 
	C606.784668,479.589355 605.356873,481.173065 603.762817,481.334991 
	C599.974304,481.719818 596.116272,481.352631 592.293091,481.485474 
	C589.312988,481.589050 588.062073,480.400269 588.159851,477.388275 
	C588.294800,473.231934 588.386841,469.056091 588.135620,464.910553 
	C587.900696,461.034241 589.672058,460.112457 593.182617,460.120331 
	C598.473022,460.132202 603.764526,459.671173 609.556763,460.403870 
	C606.898071,463.267853 604.239319,466.131836 601.472839,469.111908 
	C600.431030,468.147644 599.894531,467.222809 599.218140,467.105682 
	C597.230591,466.761475 595.187561,466.738068 593.166260,466.589050 
	C593.514282,468.474609 593.485901,470.551697 594.319275,472.190369 
	C595.107727,473.740570 596.830627,474.802399 598.090027,476.128876 
	C600.431702,478.595245 602.501099,478.368011 604.843750,475.941223 
	C609.694763,470.915894 614.701050,466.039093 619.693054,461.151886 
	C621.657410,459.228790 623.307251,456.862152 620.658447,454.922272 
	C619.499451,454.073486 616.570923,455.132355 614.690308,455.913361 
	C612.601379,456.780945 610.791138,458.319611 609.318176,458.654327 
M715.907227,564.017029 
	C716.274536,561.896362 716.960632,559.775940 716.962769,557.654907 
	C717.020752,498.661407 717.032349,439.667847 716.983826,380.674347 
	C716.976868,372.261963 712.714661,367.874481 704.390259,367.863556 
	C652.396057,367.795319 600.401672,367.798431 548.407471,367.861511 
	C539.981079,367.871704 535.954773,372.076263 535.849243,380.614319 
	C535.746277,388.945496 535.832764,397.278870 535.818665,405.611298 
	C535.814270,408.196442 535.709045,411.019928 539.298401,411.043243 
	C543.186035,411.068512 543.019226,408.057892 543.014709,405.314697 
	C543.002075,397.648865 543.002319,389.983032 543.012878,382.317200 
	C543.022522,375.322296 543.328552,375.013184 550.396240,375.012573 
	C600.890747,375.008148 651.385193,375.009155 701.879700,375.011780 
	C709.413086,375.012177 709.818909,375.406006 709.819519,382.861481 
	C709.824097,440.188568 709.822510,497.515625 709.821411,554.842712 
	C709.821289,563.391785 709.742920,563.475525 701.181641,563.477478 
	C674.517883,563.483398 647.854187,563.465759 621.190491,563.511108 
	C618.757935,563.515259 615.810547,563.218750 615.701538,566.952515 
	C615.598022,570.496338 618.159790,570.838135 620.818359,570.839111 
	C648.648621,570.848999 676.479126,570.891296 704.309021,570.797241 
	C708.981689,570.781372 713.162842,569.257385 715.907227,564.017029 
M514.610168,578.014648 
	C516.704224,578.014648 518.798218,578.014648 520.826294,578.014648 
	C520.826294,583.154968 520.826294,587.582642 520.826294,591.986694 
	C511.145294,591.986694 501.790314,591.986694 492.219635,591.986694 
	C492.219635,571.352051 491.924957,551.194458 492.338928,531.051331 
	C492.559235,520.331604 498.911835,514.357788 509.262085,512.760254 
	C510.977509,512.495483 513.513062,510.373749 513.698059,508.867859 
	C514.074890,505.801147 511.363373,505.565887 508.792053,505.696503 
	C495.255524,506.384064 485.109894,517.246338 485.019836,531.639771 
	C484.890594,552.298584 485.068542,572.959473 484.920654,593.617981 
	C484.888550,598.100464 486.455627,599.913818 491.009888,599.902832 
	C528.163696,599.813293 565.317871,599.826538 602.471802,599.891479 
	C606.440308,599.898376 608.242920,598.460938 608.219727,594.327087 
	C608.115906,575.833984 608.239136,557.339661 608.125549,538.846680 
	C608.082825,531.882324 604.623352,527.984680 597.646301,527.347595 
	C594.599365,527.069397 593.589844,526.065796 592.732239,523.198120 
	C589.668396,512.952637 579.735168,505.506439 569.659729,505.788849 
	C568.179443,505.830353 566.749756,507.674957 565.296631,508.685272 
	C566.458252,510.060455 567.447021,511.665405 568.849243,512.720947 
	C569.635376,513.312683 571.119141,512.913879 572.266052,513.100281 
	C579.446899,514.267090 585.272339,520.401550 585.420044,527.145447 
	C583.592590,527.145447 581.769348,527.145325 579.946167,527.145447 
	C564.784668,527.146179 549.622803,527.083374 534.461792,527.171631 
	C525.498474,527.223755 521.364563,531.377563 521.163574,540.316467 
	C521.062500,544.812683 521.145935,549.313049 521.145935,553.811523 
	C521.145935,559.388733 521.145935,564.965942 521.145935,570.853943 
	C517.041260,570.853943 513.674438,570.535645 510.423340,571.010315 
	C509.120392,571.200562 507.170380,573.124023 507.155853,574.279236 
	C507.140656,575.489075 508.924194,576.986511 510.251801,577.851257 
	C511.080383,578.391052 512.520325,577.992310 514.610168,578.014648 
M750.878723,665.844543 
	C750.851501,680.260498 750.876526,694.676941 750.750916,709.092041 
	C750.727173,711.824158 751.491577,713.134338 754.398621,712.954956 
	C756.870117,712.802429 759.602905,713.464844 759.663940,709.534180 
	C759.723206,705.716736 759.812622,701.875793 760.316589,698.102356 
	C760.489868,696.804932 761.953491,695.679810 762.827576,694.475952 
	C763.719482,695.529175 765.098938,696.454529 765.414795,697.658752 
	C766.503113,701.808167 767.284180,706.043213 768.061157,710.267883 
	C768.908081,714.873657 772.470520,712.662659 774.870483,712.760254 
	C775.392517,712.781433 776.721924,709.808289 776.493103,708.407959 
	C775.666077,703.345581 774.177124,698.393677 773.274292,693.340027 
	C772.947937,691.512939 772.895142,689.037964 773.864563,687.673889 
	C781.157959,677.412292 781.599731,666.108643 779.630493,654.305847 
	C777.744629,643.002930 770.607361,634.803467 757.407104,635.837219 
	C752.594727,636.214111 750.974976,638.012756 751.028381,642.536072 
	C751.116577,649.997009 750.917603,657.461304 750.878723,665.844543 
M427.309875,712.946655 
	C428.431732,711.670959 430.287964,710.520447 430.531067,709.094849 
	C431.140991,705.518494 430.813843,701.789673 431.302643,698.181641 
	C431.481323,696.862854 432.902496,695.712402 433.756836,694.485107 
	C434.662720,695.513428 436.069550,696.408813 436.383911,697.594055 
	C437.483856,701.741089 438.308533,705.970337 439.045685,710.201843 
	C439.854706,714.845703 443.411743,712.687073 445.802185,712.763672 
	C446.366730,712.781799 447.732849,709.845581 447.508789,708.466919 
	C446.685669,703.402588 445.195099,698.449280 444.285858,693.394836 
	C443.956390,691.563354 443.871613,689.079285 444.838135,687.719788 
	C452.368317,677.127686 452.689545,665.488586 450.451263,653.370422 
	C448.251038,641.458191 441.502380,635.856506 429.449646,635.956360 
	C422.953156,636.010193 422.135468,636.675903 422.092957,643.002502 
	C421.944855,665.052063 421.963501,687.103027 421.722931,709.151306 
	C421.680847,713.008118 423.775879,713.069031 427.309875,712.946655 
M621.576965,648.662170 
	C620.433655,640.057068 615.849121,635.259094 608.534546,635.012634 
	C600.543579,634.743286 595.953796,638.874451 594.295654,647.915283 
	C593.996704,649.545410 593.808777,651.217346 593.784607,652.873108 
	C593.578613,667.004333 592.943665,681.155579 593.511841,695.257568 
	C593.709412,700.161621 595.995850,705.648743 599.002686,709.593201 
	C602.306946,713.927917 608.079041,714.186707 613.246582,712.107788 
	C619.308838,709.669006 622.311523,704.569580 622.331726,698.366394 
	C622.384644,682.085938 621.939697,665.803894 621.576965,648.662170 
M638.223206,706.515625 
	C638.199524,707.014954 638.202271,707.517212 638.147705,708.013123 
	C637.817383,711.019531 638.131470,713.034912 642.160339,713.066711 
	C646.025940,713.097229 647.105225,711.591614 647.052734,708.098877 
	C647.005493,704.949463 647.117676,701.752808 647.642578,698.658875 
	C647.896362,697.162598 649.258545,695.854309 650.118896,694.460938 
	C651.077820,695.668152 652.543945,696.743103 652.899841,698.107605 
	C653.943054,702.106689 654.526062,706.224731 655.323792,710.289368 
	C656.201782,714.763000 659.767883,712.747009 662.205383,712.754395 
	C662.772888,712.756042 664.026184,709.816711 663.800354,708.418457 
	C662.953613,703.175537 661.448669,698.039795 660.574219,692.799805 
	C660.276489,691.015625 660.521362,688.618347 661.523743,687.224121 
	C668.243408,677.877441 668.934082,667.340576 667.352295,656.629395 
	C665.122742,641.531494 658.724121,635.813965 645.565918,635.963013 
	C639.357788,636.033325 638.338989,636.920288 638.307617,643.232727 
	C638.204346,664.026123 638.203613,684.819946 638.223206,706.515625 
M466.173767,655.638977 
	C466.142731,668.621155 466.117981,681.603271 466.077698,694.585449 
	C466.060791,700.033264 466.977112,705.263062 470.940460,709.277771 
	C474.936554,713.325500 480.126648,714.157593 485.269836,712.385803 
	C491.574738,710.213745 494.676331,705.035583 495.000336,698.577393 
	C495.357025,691.466553 495.273560,684.321472 495.090942,677.198730 
	C494.827057,666.904114 494.595367,656.593445 493.800201,646.332214 
	C493.082153,637.066223 481.735504,631.914673 473.741486,636.731384 
	C466.769379,640.932312 466.911316,647.938110 466.173767,655.638977 
M795.166443,659.534546 
	C795.230164,672.667297 794.879578,685.819519 795.497009,698.926147 
	C795.939575,708.321960 801.940308,713.238831 810.795288,713.007324 
	C817.968262,712.819824 823.981812,706.620361 823.952271,698.192749 
	C823.891907,680.942444 823.417664,663.689148 822.810669,646.447754 
	C822.601990,640.518555 817.388611,635.751648 811.463440,635.066162 
	C804.790527,634.294312 798.994263,637.293945 797.360291,643.355652 
	C796.039429,648.255798 795.902466,653.474976 795.166443,659.534546 
M706.861694,646.754639 
	C706.708008,667.005981 706.554688,687.257324 706.400269,707.508667 
	C706.382935,709.785767 705.691345,712.603333 709.313354,712.607788 
	C712.430115,712.611633 715.400330,712.163879 714.936157,707.698669 
	C714.697144,705.399170 715.124512,703.035034 714.947144,700.723389 
	C714.621399,696.475830 716.860718,694.179626 720.579590,693.154297 
	C726.361572,691.560181 729.850586,687.613159 732.237061,682.415955 
	C737.078552,671.872498 737.631104,661.178589 734.596680,649.898499 
	C731.964233,640.112732 722.958130,633.146423 711.533081,635.297729 
	C709.971741,635.591736 708.115234,637.422546 707.519226,638.973572 
	C706.726379,641.036621 707.036316,643.523376 706.861694,646.754639 
M383.786926,712.126831 
	C384.477997,710.810425 385.569214,709.552490 385.772064,708.164795 
	C386.130096,705.715393 386.135712,703.172546 385.947784,700.694641 
	C385.623413,696.418396 387.910675,694.163879 391.613373,693.148804 
	C397.214844,691.613098 400.686188,687.828552 403.044708,682.829163 
	C408.074707,672.167175 408.814087,661.279236 405.559052,649.842163 
	C403.487396,642.562988 399.050385,638.042114 392.311279,635.572327 
	C383.470886,632.332336 377.786255,635.540649 377.750702,643.427673 
	C377.654907,664.688843 377.645630,685.951721 377.324249,707.209656 
	C377.256012,711.722412 378.428345,713.550842 383.786926,712.126831 
M514.018799,642.692322 
	C513.555420,644.456421 512.773193,646.203979 512.681152,647.987244 
	C512.142395,658.425598 511.439545,668.872192 511.439087,679.316040 
	C511.438751,687.234192 511.689941,695.285034 513.131470,703.034485 
	C514.676331,711.339111 523.157288,715.041687 531.015137,711.920654 
	C537.479370,709.353149 542.776367,698.510071 540.629211,691.851807 
	C540.304077,690.843506 539.005554,689.761780 537.940979,689.448120 
	C533.902283,688.258057 532.655151,689.738159 531.872559,696.255432 
	C531.458069,699.707947 530.743835,703.362732 526.521912,703.501038 
	C522.219238,703.642029 521.742493,699.795837 521.644592,696.676514 
	C521.264404,684.564636 521.047180,672.445129 520.981934,660.327271 
	C520.960571,656.353882 521.137878,652.262634 522.113586,648.453064 
	C522.558960,646.713928 525.150635,644.436035 526.788208,644.420349 
	C528.208130,644.406738 530.097168,647.033386 530.960754,648.876465 
	C531.756592,650.574951 530.975525,653.025391 531.801453,654.692627 
	C532.491333,656.085327 534.463501,657.566528 535.937378,657.641418 
	C537.382324,657.714966 539.796082,656.382690 540.256714,655.113098 
	C542.252441,649.612366 537.950623,639.016907 533.243042,636.771240 
	C526.751160,633.674316 518.902893,635.841248 514.018799,642.692322 
M562.321106,681.494568 
	C562.284668,690.152466 562.240356,698.810364 562.216797,707.468262 
	C562.210083,709.933655 562.379700,711.879517 565.840759,712.126953 
	C571.592285,712.538025 572.037354,712.492676 572.077087,706.515503 
	C572.199524,688.097473 572.241150,669.678894 572.300354,651.260498 
	C572.311096,647.930847 572.350952,644.970825 577.024414,644.675659 
	C583.080627,644.293274 583.744324,642.854187 581.592712,635.976929 
	C573.472595,635.976929 565.194763,636.011536 556.917603,635.956177 
	C554.379150,635.939087 552.699036,636.602783 552.726562,639.546509 
	C552.753479,642.422791 553.435425,644.373535 556.971680,644.178772 
	C560.947815,643.959656 562.529297,646.101685 562.454346,650.069824 
	C562.262878,660.209412 562.298157,670.353271 562.321106,681.494568 
M542.484253,418.992310 
	C538.328308,418.992523 534.097473,418.504517 530.036865,419.126678 
	C525.755249,419.782684 521.072205,420.634521 517.559875,422.926239 
	C509.562103,428.144684 509.958191,436.724701 510.905182,444.948212 
	C511.039612,446.115417 513.708984,447.847290 515.224182,447.867188 
	C531.346619,448.079315 547.472778,448.004456 563.597961,447.992920 
	C567.147278,447.990387 568.365234,446.108856 568.568420,442.640045 
	C569.464783,427.344940 561.655396,417.561401 545.968323,418.982727 
	C545.143921,419.057404 544.306763,418.992371 542.484253,418.992310 
M538.651489,498.413025 
	C543.296997,497.348419 548.368652,497.134308 552.508545,495.060364 
	C565.139465,488.732697 571.989746,472.279541 568.267212,458.323547 
	C567.916565,457.009003 565.726379,455.240997 564.548401,455.352631 
	C563.332092,455.467834 561.520081,457.524750 561.350952,458.902008 
	C560.866394,462.847656 561.235535,466.888611 560.993530,470.875366 
	C560.283875,482.561859 550.919983,491.185089 539.181458,491.111053 
	C527.721863,491.038788 518.674500,482.433044 518.000183,470.818726 
	C517.778320,466.997162 518.257568,463.096832 517.659851,459.353302 
	C517.409790,457.787109 515.190674,456.535278 513.866821,455.140533 
	C512.746582,456.540710 510.816345,457.858124 510.663147,459.357086 
	C510.259674,463.305450 510.413513,467.349670 510.727722,471.325531 
	C511.919647,486.409027 522.734253,497.115723 538.651489,498.413025 
M640.551514,519.743713 
	C650.049072,519.743713 659.546570,519.743591 669.044128,519.743835 
	C677.708557,519.744080 686.372986,519.744690 695.037415,519.745422 
	C697.669739,519.745667 700.447998,519.518372 700.532166,516.146606 
	C700.624634,512.443115 697.712341,512.182007 694.881897,512.199585 
	C694.048767,512.204712 693.215637,512.201599 692.382507,512.201599 
	C681.218750,512.201660 670.054932,512.202148 658.891174,512.201233 
	C650.559998,512.200623 642.228760,512.180847 633.897705,512.206543 
	C631.232361,512.214783 628.046021,511.907959 627.971191,515.768860 
	C627.890808,519.913574 631.199951,519.699890 634.076050,519.738770 
	C635.908630,519.763550 637.741699,519.743591 640.551514,519.743713 
M679.498230,467.412659 
	C684.984558,467.408661 690.490051,467.657776 695.945374,467.244568 
	C697.557556,467.122467 699.028137,465.131165 700.563599,463.996429 
	C698.995422,462.687012 697.478210,461.306854 695.824890,460.115753 
	C695.386719,459.800079 694.529602,460.064728 693.864868,460.064972 
	C674.081055,460.072357 654.297241,460.075653 634.513428,460.097137 
	C633.190186,460.098572 631.657776,459.849152 630.600891,460.418549 
	C629.473938,461.025696 628.022400,462.539734 628.114685,463.526825 
	C628.235779,464.822662 629.489014,466.429230 630.698730,467.088135 
	C631.877258,467.730103 633.614624,467.402313 635.106689,467.403809 
	C649.570740,467.418335 664.034729,467.412567 679.498230,467.412659 
M678.499634,401.075562 
	C663.374207,401.056793 648.248840,401.024323 633.123413,401.032318 
	C630.500793,401.033691 627.490173,401.442169 628.180481,404.847443 
	C628.470459,406.278015 631.317139,408.167114 633.019897,408.185852 
	C653.794800,408.414642 674.573853,408.412262 695.348877,408.191498 
	C697.092163,408.172974 700.017456,406.394836 700.303040,405.004669 
	C700.957947,401.817047 698.238281,401.012512 695.455017,401.026367 
	C690.136475,401.052856 684.817810,401.060242 678.499634,401.075562 
M629.948730,481.176239 
	C644.728699,481.333649 659.509277,481.583008 674.287537,481.485443 
	C675.560730,481.477051 676.818787,479.171143 678.083862,477.932495 
	C676.482544,476.673401 674.903748,474.356628 673.276367,474.321930 
	C659.808716,474.034912 646.331482,474.097534 632.858459,474.215576 
	C627.891113,474.259125 626.937683,476.227600 629.948730,481.176239 
M670.197266,422.628143 
	C672.012512,422.516418 673.968628,422.776825 675.593262,422.161713 
	C676.669678,421.754211 677.888916,420.105499 677.913330,418.987793 
	C677.938354,417.843384 676.823669,416.298096 675.764832,415.615814 
	C674.781555,414.982239 673.214111,415.148865 671.903442,415.145996 
	C659.283508,415.118317 646.663452,415.120026 634.043457,415.136414 
	C631.210510,415.140106 627.856506,414.794922 627.976685,419.013306 
	C628.084595,422.799469 631.221313,422.610840 633.895325,422.616699 
	C645.684998,422.642487 657.474854,422.628082 670.197266,422.628143 
M629.184937,532.929749 
	C629.950073,533.230713 630.713928,533.790649 631.480469,533.794189 
	C645.620605,533.860535 659.763184,533.970703 673.898315,533.704407 
	C675.317688,533.677673 676.692505,531.285278 678.088074,529.990845 
	C676.610229,528.791016 675.152588,526.579224 673.651367,526.549255 
	C660.014709,526.277100 646.370300,526.346863 632.728577,526.407043 
	C628.671143,526.424927 626.644226,528.100037 629.184937,532.929749 
M527.965271,506.757538 
	C526.085999,506.922119 524.206665,507.086700 522.327393,507.251312 
	C522.791687,509.018188 522.725830,511.251373 523.804565,512.477722 
	C531.981689,521.773560 546.994873,521.821228 555.692993,512.500122 
	C556.840027,511.270966 556.487610,508.642487 556.829590,506.662140 
	C554.793213,506.927124 552.177979,506.475586 550.816162,507.575653 
	C543.117859,513.794312 535.850830,513.848572 527.965271,506.757538 
z"/>
<path fill="#F0E6E9" opacity="1.000000" stroke="none" 
	d="
M715.732666,564.372314 
	C713.162842,569.257385 708.981689,570.781372 704.309021,570.797241 
	C676.479126,570.891296 648.648621,570.848999 620.818359,570.839111 
	C618.159790,570.838135 615.598022,570.496338 615.701538,566.952515 
	C615.810547,563.218750 618.757935,563.515259 621.190491,563.511108 
	C647.854187,563.465759 674.517883,563.483398 701.181641,563.477478 
	C709.742920,563.475525 709.821289,563.391785 709.821411,554.842712 
	C709.822510,497.515625 709.824097,440.188568 709.819519,382.861481 
	C709.818909,375.406006 709.413086,375.012177 701.879700,375.011780 
	C651.385193,375.009155 600.890747,375.008148 550.396240,375.012573 
	C543.328552,375.013184 543.022522,375.322296 543.012878,382.317200 
	C543.002319,389.983032 543.002075,397.648865 543.014709,405.314697 
	C543.019226,408.057892 543.186035,411.068512 539.298401,411.043243 
	C535.709045,411.019928 535.814270,408.196442 535.818665,405.611298 
	C535.832764,397.278870 535.746277,388.945496 535.849243,380.614319 
	C535.954773,372.076263 539.981079,367.871704 548.407471,367.861511 
	C600.401672,367.798431 652.396057,367.795319 704.390259,367.863556 
	C712.714661,367.874481 716.976868,372.261963 716.983826,380.674347 
	C717.032349,439.667847 717.020752,498.661407 716.962769,557.654907 
	C716.960632,559.775940 716.274536,561.896362 715.732666,564.372314 
z"/>
<path fill="#EEE5E8" opacity="1.000000" stroke="none" 
	d="
M514.148071,578.014648 
	C512.520325,577.992310 511.080383,578.391052 510.251801,577.851257 
	C508.924194,576.986511 507.140656,575.489075 507.155853,574.279236 
	C507.170380,573.124023 509.120392,571.200562 510.423340,571.010315 
	C513.674438,570.535645 517.041260,570.853943 521.145935,570.853943 
	C521.145935,564.965942 521.145935,559.388733 521.145935,553.811523 
	C521.145935,549.313049 521.062500,544.812683 521.163574,540.316467 
	C521.364563,531.377563 525.498474,527.223755 534.461792,527.171631 
	C549.622803,527.083374 564.784668,527.146179 579.946167,527.145447 
	C581.769348,527.145325 583.592590,527.145447 585.420044,527.145447 
	C585.272339,520.401550 579.446899,514.267090 572.266052,513.100281 
	C571.119141,512.913879 569.635376,513.312683 568.849243,512.720947 
	C567.447021,511.665405 566.458252,510.060455 565.296631,508.685272 
	C566.749756,507.674957 568.179443,505.830353 569.659729,505.788849 
	C579.735168,505.506439 589.668396,512.952637 592.732239,523.198120 
	C593.589844,526.065796 594.599365,527.069397 597.646301,527.347595 
	C604.623352,527.984680 608.082825,531.882324 608.125549,538.846680 
	C608.239136,557.339661 608.115906,575.833984 608.219727,594.327087 
	C608.242920,598.460938 606.440308,599.898376 602.471802,599.891479 
	C565.317871,599.826538 528.163696,599.813293 491.009888,599.902832 
	C486.455627,599.913818 484.888550,598.100464 484.920654,593.617981 
	C485.068542,572.959473 484.890594,552.298584 485.019836,531.639771 
	C485.109894,517.246338 495.255524,506.384064 508.792053,505.696503 
	C511.363373,505.565887 514.074890,505.801147 513.698059,508.867859 
	C513.513062,510.373749 510.977509,512.495483 509.262085,512.760254 
	C498.911835,514.357788 492.559235,520.331604 492.338928,531.051331 
	C491.924957,551.194458 492.219635,571.352051 492.219635,591.986694 
	C501.790314,591.986694 511.145294,591.986694 520.826294,591.986694 
	C520.826294,587.582642 520.826294,583.154968 520.826294,578.014648 
	C518.798218,578.014648 516.704224,578.014648 514.148071,578.014648 
M601.003418,560.500000 
	C601.003052,553.677856 600.850647,546.851074 601.058472,540.035278 
	C601.186218,535.847229 599.322449,534.445984 595.389771,534.459656 
	C574.923645,534.530701 554.456970,534.538330 533.990906,534.458679 
	C529.940796,534.442932 528.405212,536.099548 528.437256,540.146179 
	C528.565247,556.285278 528.483521,572.426025 528.502197,588.566162 
	C528.503479,589.689270 528.690613,590.812134 528.815674,592.205811 
	C552.937561,592.205811 576.801819,592.205811 601.003418,592.205811 
	C601.003418,581.768127 601.003418,571.634033 601.003418,560.500000 
z"/>
<path fill="#ECE4E8" opacity="1.000000" stroke="none" 
	d="
M750.859192,665.384399 
	C750.917603,657.461304 751.116577,649.997009 751.028381,642.536072 
	C750.974976,638.012756 752.594727,636.214111 757.407104,635.837219 
	C770.607361,634.803467 777.744629,643.002930 779.630493,654.305847 
	C781.599731,666.108643 781.157959,677.412292 773.864563,687.673889 
	C772.895142,689.037964 772.947937,691.512939 773.274292,693.340027 
	C774.177124,698.393677 775.666077,703.345581 776.493103,708.407959 
	C776.721924,709.808289 775.392517,712.781433 774.870483,712.760254 
	C772.470520,712.662659 768.908081,714.873657 768.061157,710.267883 
	C767.284180,706.043213 766.503113,701.808167 765.414795,697.658752 
	C765.098938,696.454529 763.719482,695.529175 762.827576,694.475952 
	C761.953491,695.679810 760.489868,696.804932 760.316589,698.102356 
	C759.812622,701.875793 759.723206,705.716736 759.663940,709.534180 
	C759.602905,713.464844 756.870117,712.802429 754.398621,712.954956 
	C751.491577,713.134338 750.727173,711.824158 750.750916,709.092041 
	C750.876526,694.676941 750.851501,680.260498 750.859192,665.384399 
M769.036926,676.332764 
	C769.605957,669.833801 770.816101,663.302063 770.486023,656.849060 
	C770.308655,653.379822 767.671631,649.936096 765.747925,646.717896 
	C765.176575,645.762146 763.199890,645.129150 761.979187,645.276428 
	C761.268250,645.362122 760.311218,647.270325 760.266663,648.390381 
	C759.983582,655.508240 759.895386,662.634644 759.801392,669.758972 
	C759.743958,674.115540 759.790833,678.473389 759.790833,682.830688 
	C760.535645,683.179626 761.280457,683.528564 762.025330,683.877502 
	C764.289673,681.612244 766.554077,679.346985 769.036926,676.332764 
z"/>
<path fill="#ECE4E8" opacity="1.000000" stroke="none" 
	d="
M426.884155,712.948059 
	C423.775879,713.069031 421.680847,713.008118 421.722931,709.151306 
	C421.963501,687.103027 421.944855,665.052063 422.092957,643.002502 
	C422.135468,636.675903 422.953156,636.010193 429.449646,635.956360 
	C441.502380,635.856506 448.251038,641.458191 450.451263,653.370422 
	C452.689545,665.488586 452.368317,677.127686 444.838135,687.719788 
	C443.871613,689.079285 443.956390,691.563354 444.285858,693.394836 
	C445.195099,698.449280 446.685669,703.402588 447.508789,708.466919 
	C447.732849,709.845581 446.366730,712.781799 445.802185,712.763672 
	C443.411743,712.687073 439.854706,714.845703 439.045685,710.201843 
	C438.308533,705.970337 437.483856,701.741089 436.383911,697.594055 
	C436.069550,696.408813 434.662720,695.513428 433.756836,694.485107 
	C432.902496,695.712402 431.481323,696.862854 431.302643,698.181641 
	C430.813843,701.789673 431.140991,705.518494 430.531067,709.094849 
	C430.287964,710.520447 428.431732,711.670959 426.884155,712.948059 
M437.322479,647.137268 
	C435.922760,646.440796 434.523041,645.744324 433.123352,645.047852 
	C432.451630,646.434021 431.298676,647.785583 431.196045,649.212708 
	C430.851715,654.000610 430.825684,658.815002 430.783051,663.620178 
	C430.726562,669.996155 430.769165,676.372986 430.769165,682.991089 
	C435.854889,682.859863 438.348022,680.536133 439.706421,677.208496 
	C443.823456,667.123169 443.655945,657.205444 437.322479,647.137268 
z"/>
<path fill="#EBE3E8" opacity="1.000000" stroke="none" 
	d="
M621.635010,649.092285 
	C621.939697,665.803894 622.384644,682.085938 622.331726,698.366394 
	C622.311523,704.569580 619.308838,709.669006 613.246582,712.107788 
	C608.079041,714.186707 602.306946,713.927917 599.002686,709.593201 
	C595.995850,705.648743 593.709412,700.161621 593.511841,695.257568 
	C592.943665,681.155579 593.578613,667.004333 593.784607,652.873108 
	C593.808777,651.217346 593.996704,649.545410 594.295654,647.915283 
	C595.953796,638.874451 600.543579,634.743286 608.534546,635.012634 
	C615.849121,635.259094 620.433655,640.057068 621.635010,649.092285 
M604.891479,646.308167 
	C604.216553,648.833191 602.992249,651.350952 602.958679,653.884460 
	C602.782776,667.156982 602.876770,680.433716 602.964233,693.708435 
	C602.977234,695.681091 603.008789,697.870972 603.844604,699.557617 
	C604.628296,701.139099 606.885620,703.475769 607.793396,703.197021 
	C609.605347,702.640503 611.904724,700.725891 612.270203,699.004333 
	C613.082886,695.176331 613.009583,691.120117 612.974976,687.159729 
	C612.866516,674.739624 612.769714,662.315063 612.328003,649.904358 
	C612.155884,645.068970 610.171814,644.129333 604.891479,646.308167 
z"/>
<path fill="#ECE4E8" opacity="1.000000" stroke="none" 
	d="
M638.193359,706.064636 
	C638.203613,684.819946 638.204346,664.026123 638.307617,643.232727 
	C638.338989,636.920288 639.357788,636.033325 645.565918,635.963013 
	C658.724121,635.813965 665.122742,641.531494 667.352295,656.629395 
	C668.934082,667.340576 668.243408,677.877441 661.523743,687.224121 
	C660.521362,688.618347 660.276489,691.015625 660.574219,692.799805 
	C661.448669,698.039795 662.953613,703.175537 663.800354,708.418457 
	C664.026184,709.816711 662.772888,712.756042 662.205383,712.754395 
	C659.767883,712.747009 656.201782,714.763000 655.323792,710.289368 
	C654.526062,706.224731 653.943054,702.106689 652.899841,698.107605 
	C652.543945,696.743103 651.077820,695.668152 650.118896,694.460938 
	C649.258545,695.854309 647.896362,697.162598 647.642578,698.658875 
	C647.117676,701.752808 647.005493,704.949463 647.052734,708.098877 
	C647.105225,711.591614 646.025940,713.097229 642.160339,713.066711 
	C638.131470,713.034912 637.817383,711.019531 638.147705,708.013123 
	C638.202271,707.517212 638.199524,707.014954 638.193359,706.064636 
M647.485474,649.326965 
	C647.485474,660.488281 647.485474,671.649597 647.485474,682.810913 
	C648.079712,683.170715 648.673950,683.530518 649.268188,683.890320 
	C651.553650,681.661133 654.558960,679.814148 655.984863,677.128540 
	C659.729065,670.076904 659.442810,662.369568 657.518188,654.846680 
	C656.803345,652.052490 655.225464,649.291931 653.419312,647.007751 
	C650.693604,643.560486 649.030701,644.111084 647.485474,649.326965 
z"/>
<path fill="#EBE3E8" opacity="1.000000" stroke="none" 
	d="
M466.219238,655.163757 
	C466.911316,647.938110 466.769379,640.932312 473.741486,636.731384 
	C481.735504,631.914673 493.082153,637.066223 493.800201,646.332214 
	C494.595367,656.593445 494.827057,666.904114 495.090942,677.198730 
	C495.273560,684.321472 495.357025,691.466553 495.000336,698.577393 
	C494.676331,705.035583 491.574738,710.213745 485.269836,712.385803 
	C480.126648,714.157593 474.936554,713.325500 470.940460,709.277771 
	C466.977112,705.263062 466.060791,700.033264 466.077698,694.585449 
	C466.117981,681.603271 466.142731,668.621155 466.219238,655.163757 
M483.661316,645.850830 
	C478.787689,643.934631 476.002777,645.282593 475.890808,650.918762 
	C475.581055,666.508301 475.714966,682.114258 476.137146,697.701172 
	C476.190735,699.679932 478.854919,703.012817 480.579132,703.197083 
	C483.364502,703.494751 485.429016,701.080383 485.410461,697.596008 
	C485.348724,686.003479 485.571625,674.408081 485.399750,662.818054 
	C485.319366,657.396851 484.584290,651.985413 483.661316,645.850830 
z"/>
<path fill="#EBE3E8" opacity="1.000000" stroke="none" 
	d="
M795.203369,659.043579 
	C795.902466,653.474976 796.039429,648.255798 797.360291,643.355652 
	C798.994263,637.293945 804.790527,634.294312 811.463440,635.066162 
	C817.388611,635.751648 822.601990,640.518555 822.810669,646.447754 
	C823.417664,663.689148 823.891907,680.942444 823.952271,698.192749 
	C823.981812,706.620361 817.968262,712.819824 810.795288,713.007324 
	C801.940308,713.238831 795.939575,708.321960 795.497009,698.926147 
	C794.879578,685.819519 795.230164,672.667297 795.203369,659.043579 
M804.704346,681.514709 
	C804.720459,683.007935 804.730103,684.501343 804.753967,685.994446 
	C804.817505,689.973572 804.365234,694.061340 805.162537,697.888306 
	C805.597229,699.974915 807.986206,702.914307 809.796082,703.150146 
	C812.314575,703.478394 814.541199,701.180054 814.338867,697.875610 
	C814.298950,697.223633 814.552917,696.557556 814.547668,695.898987 
	C814.425659,680.839355 814.433411,665.775330 813.976929,650.725464 
	C813.915222,648.692200 811.861633,645.502747 810.106628,644.992126 
	C806.512451,643.946289 805.602417,647.518677 804.929932,650.222107 
	C804.457458,652.121460 804.494507,654.176208 804.500427,656.160950 
	C804.525085,664.281128 804.625122,672.401184 804.704346,681.514709 
z"/>
<path fill="#EDE4E8" opacity="1.000000" stroke="none" 
	d="
M706.867126,646.291382 
	C707.036316,643.523376 706.726379,641.036621 707.519226,638.973572 
	C708.115234,637.422546 709.971741,635.591736 711.533081,635.297729 
	C722.958130,633.146423 731.964233,640.112732 734.596680,649.898499 
	C737.631104,661.178589 737.078552,671.872498 732.237061,682.415955 
	C729.850586,687.613159 726.361572,691.560181 720.579590,693.154297 
	C716.860718,694.179626 714.621399,696.475830 714.947144,700.723389 
	C715.124512,703.035034 714.697144,705.399170 714.936157,707.698669 
	C715.400330,712.163879 712.430115,712.611633 709.313354,712.607788 
	C705.691345,712.603333 706.382935,709.785767 706.400269,707.508667 
	C706.554688,687.257324 706.708008,667.005981 706.867126,646.291382 
M716.498291,681.776245 
	C718.656372,680.531128 721.206238,679.660095 722.857483,677.930908 
	C724.374939,676.341797 725.237305,673.914673 725.845093,671.707214 
	C728.146606,663.347168 727.662598,655.173157 722.851868,647.752747 
	C721.973816,646.398315 719.656250,645.604248 717.894775,645.371094 
	C717.145996,645.271973 715.331482,647.288208 715.337769,648.335022 
	C715.403503,659.267517 715.740967,670.198486 716.498291,681.776245 
z"/>
<path fill="#EDE4E8" opacity="1.000000" stroke="none" 
	d="
M383.384125,712.194458 
	C378.428345,713.550842 377.256012,711.722412 377.324249,707.209656 
	C377.645630,685.951721 377.654907,664.688843 377.750702,643.427673 
	C377.786255,635.540649 383.470886,632.332336 392.311279,635.572327 
	C399.050385,638.042114 403.487396,642.562988 405.559052,649.842163 
	C408.814087,661.279236 408.074707,672.167175 403.044708,682.829163 
	C400.686188,687.828552 397.214844,691.613098 391.613373,693.148804 
	C387.910675,694.163879 385.623413,696.418396 385.947784,700.694641 
	C386.135712,703.172546 386.130096,705.715393 385.772064,708.164795 
	C385.569214,709.552490 384.477997,710.810425 383.384125,712.194458 
M386.222687,652.763611 
	C386.222687,662.448242 386.222687,672.132935 386.222687,681.817566 
	C386.916748,682.105042 387.610779,682.392517 388.304840,682.679932 
	C390.291199,680.968933 392.871948,679.617004 394.160370,677.484314 
	C399.558777,668.548523 399.476532,659.100403 395.027527,649.887939 
	C394.026276,647.814697 390.995026,646.721863 388.898224,645.177673 
	C388.008820,647.397278 387.119415,649.616943 386.222687,652.763611 
z"/>
<path fill="#ECE3E8" opacity="1.000000" stroke="none" 
	d="
M514.170166,642.343872 
	C518.902893,635.841248 526.751160,633.674316 533.243042,636.771240 
	C537.950623,639.016907 542.252441,649.612366 540.256714,655.113098 
	C539.796082,656.382690 537.382324,657.714966 535.937378,657.641418 
	C534.463501,657.566528 532.491333,656.085327 531.801453,654.692627 
	C530.975525,653.025391 531.756592,650.574951 530.960754,648.876465 
	C530.097168,647.033386 528.208130,644.406738 526.788208,644.420349 
	C525.150635,644.436035 522.558960,646.713928 522.113586,648.453064 
	C521.137878,652.262634 520.960571,656.353882 520.981934,660.327271 
	C521.047180,672.445129 521.264404,684.564636 521.644592,696.676514 
	C521.742493,699.795837 522.219238,703.642029 526.521912,703.501038 
	C530.743835,703.362732 531.458069,699.707947 531.872559,696.255432 
	C532.655151,689.738159 533.902283,688.258057 537.940979,689.448120 
	C539.005554,689.761780 540.304077,690.843506 540.629211,691.851807 
	C542.776367,698.510071 537.479370,709.353149 531.015137,711.920654 
	C523.157288,715.041687 514.676331,711.339111 513.131470,703.034485 
	C511.689941,695.285034 511.438751,687.234192 511.439087,679.316040 
	C511.439545,668.872192 512.142395,658.425598 512.681152,647.987244 
	C512.773193,646.203979 513.555420,644.456421 514.170166,642.343872 
z"/>
<path fill="#EBE3E8" opacity="1.000000" stroke="none" 
	d="
M562.281860,680.994995 
	C562.298157,670.353271 562.262878,660.209412 562.454346,650.069824 
	C562.529297,646.101685 560.947815,643.959656 556.971680,644.178772 
	C553.435425,644.373535 552.753479,642.422791 552.726562,639.546509 
	C552.699036,636.602783 554.379150,635.939087 556.917603,635.956177 
	C565.194763,636.011536 573.472595,635.976929 581.592712,635.976929 
	C583.744324,642.854187 583.080627,644.293274 577.024414,644.675659 
	C572.350952,644.970825 572.311096,647.930847 572.300354,651.260498 
	C572.241150,669.678894 572.199524,688.097473 572.077087,706.515503 
	C572.037354,712.492676 571.592285,712.538025 565.840759,712.126953 
	C562.379700,711.879517 562.210083,709.933655 562.216797,707.468262 
	C562.240356,698.810364 562.284668,690.152466 562.281860,680.994995 
z"/>
<path fill="#F1E7E9" opacity="1.000000" stroke="none" 
	d="
M542.979919,418.992340 
	C544.306763,418.992371 545.143921,419.057404 545.968323,418.982727 
	C561.655396,417.561401 569.464783,427.344940 568.568420,442.640045 
	C568.365234,446.108856 567.147278,447.990387 563.597961,447.992920 
	C547.472778,448.004456 531.346619,448.079315 515.224182,447.867188 
	C513.708984,447.847290 511.039612,446.115417 510.905182,444.948212 
	C509.958191,436.724701 509.562103,428.144684 517.559875,422.926239 
	C521.072205,420.634521 525.755249,419.782684 530.036865,419.126678 
	C534.097473,418.504517 538.328308,418.992523 542.979919,418.992340 
M558.167053,440.843262 
	C559.162903,439.764404 560.978088,438.715698 561.019104,437.601593 
	C561.253723,431.236572 557.099426,426.676117 550.324829,426.316071 
	C543.044067,425.929108 535.702026,425.850739 528.432068,426.327881 
	C520.292358,426.862122 516.797485,432.217651 518.565979,440.847015 
	C531.391602,440.847015 544.309082,440.847015 558.167053,440.843262 
z"/>
<path fill="#EBE3E8" opacity="1.000000" stroke="none" 
	d="
M538.226685,498.367950 
	C522.734253,497.115723 511.919647,486.409027 510.727722,471.325531 
	C510.413513,467.349670 510.259674,463.305450 510.663147,459.357086 
	C510.816345,457.858124 512.746582,456.540710 513.866821,455.140533 
	C515.190674,456.535278 517.409790,457.787109 517.659851,459.353302 
	C518.257568,463.096832 517.778320,466.997162 518.000183,470.818726 
	C518.674500,482.433044 527.721863,491.038788 539.181458,491.111053 
	C550.919983,491.185089 560.283875,482.561859 560.993530,470.875366 
	C561.235535,466.888611 560.866394,462.847656 561.350952,458.902008 
	C561.520081,457.524750 563.332092,455.467834 564.548401,455.352631 
	C565.726379,455.240997 567.916565,457.009003 568.267212,458.323547 
	C571.989746,472.279541 565.139465,488.732697 552.508545,495.060364 
	C548.368652,497.134308 543.296997,497.348419 538.226685,498.367950 
z"/>
<path fill="#ECE4E8" opacity="1.000000" stroke="none" 
	d="
M609.055542,459.411163 
	C603.764526,459.671173 598.473022,460.132202 593.182617,460.120331 
	C589.672058,460.112457 587.900696,461.034241 588.135620,464.910553 
	C588.386841,469.056091 588.294800,473.231934 588.159851,477.388275 
	C588.062073,480.400269 589.312988,481.589050 592.293091,481.485474 
	C596.116272,481.352631 599.974304,481.719818 603.762817,481.334991 
	C605.356873,481.173065 606.784668,479.589355 608.337769,478.743256 
	C609.658997,478.023499 611.542969,476.559082 612.302246,476.985077 
	C613.570374,477.696472 614.806396,479.623260 614.873108,481.092194 
	C615.045654,484.887360 611.209717,488.420349 606.430847,488.711151 
	C600.960205,489.044006 595.435547,489.078949 589.968750,488.719940 
	C584.330872,488.349701 581.213867,484.894073 581.034180,479.254761 
	C580.854126,473.602051 580.846008,467.933807 581.041016,462.281982 
	C581.232605,456.729401 584.590942,453.320435 590.192078,453.056396 
	C595.340027,452.813751 600.510498,452.898315 605.666504,453.024689 
	C609.412231,453.116425 610.741394,455.064575 609.140259,459.092377 
	C608.962280,459.530426 609.055542,459.411163 609.055542,459.411163 
z"/>
<path fill="#ECE4E8" opacity="1.000000" stroke="none" 
	d="
M608.676453,400.828308 
	C603.381531,401.066742 598.086365,401.486481 592.791870,401.478088 
	C589.422363,401.472748 587.928223,402.505463 588.135681,406.074524 
	C588.376648,410.221039 588.372009,414.402649 588.135925,418.549744 
	C587.930664,422.154541 589.465088,423.240692 592.836670,423.025970 
	C596.151672,422.814819 599.491699,422.928314 602.818665,422.997314 
	C605.361572,423.050018 607.693970,423.281189 608.605591,419.867401 
	C608.848755,418.957092 611.463623,417.869781 612.552551,418.220581 
	C613.672119,418.581146 614.841370,420.547455 614.964478,421.904083 
	C615.304199,425.648132 611.330078,429.807465 607.008362,430.013275 
	C601.034424,430.297791 595.009888,430.410706 589.056580,429.953156 
	C584.383179,429.593903 581.427246,426.328186 581.142517,421.704346 
	C580.754639,415.405609 580.813477,409.053558 581.121277,402.745880 
	C581.371338,397.621979 584.817688,394.556671 590.460938,394.233917 
	C595.437500,393.949310 600.444885,394.063751 605.434021,394.188293 
	C608.995178,394.277130 610.702942,395.995514 609.212097,400.137451 
	C608.792358,400.713654 608.682373,400.804962 608.676453,400.828308 
z"/>
<path fill="#E0DDE7" opacity="1.000000" stroke="none" 
	d="
M640.063049,519.743713 
	C637.741699,519.743591 635.908630,519.763550 634.076050,519.738770 
	C631.199951,519.699890 627.890808,519.913574 627.971191,515.768860 
	C628.046021,511.907959 631.232361,512.214783 633.897705,512.206543 
	C642.228760,512.180847 650.559998,512.200623 658.891174,512.201233 
	C670.054932,512.202148 681.218750,512.201660 692.382507,512.201599 
	C693.215637,512.201599 694.048767,512.204712 694.881897,512.199585 
	C697.712341,512.182007 700.624634,512.443115 700.532166,516.146606 
	C700.447998,519.518372 697.669739,519.745667 695.037415,519.745422 
	C686.372986,519.744690 677.708557,519.744080 669.044128,519.743835 
	C659.546570,519.743591 650.049072,519.743713 640.063049,519.743713 
z"/>
<path fill="#EEE5E8" opacity="1.000000" stroke="none" 
	d="
M678.998535,467.412628 
	C664.034729,467.412567 649.570740,467.418335 635.106689,467.403809 
	C633.614624,467.402313 631.877258,467.730103 630.698730,467.088135 
	C629.489014,466.429230 628.235779,464.822662 628.114685,463.526825 
	C628.022400,462.539734 629.473938,461.025696 630.600891,460.418549 
	C631.657776,459.849152 633.190186,460.098572 634.513428,460.097137 
	C654.297241,460.075653 674.081055,460.072357 693.864868,460.064972 
	C694.529602,460.064728 695.386719,459.800079 695.824890,460.115753 
	C697.478210,461.306854 698.995422,462.687012 700.563599,463.996429 
	C699.028137,465.131165 697.557556,467.122467 695.945374,467.244568 
	C690.490051,467.657776 684.984558,467.408661 678.998535,467.412628 
z"/>
<path fill="#F0E6E9" opacity="1.000000" stroke="none" 
	d="
M678.999390,401.075562 
	C684.817810,401.060242 690.136475,401.052856 695.455017,401.026367 
	C698.238281,401.012512 700.957947,401.817047 700.303040,405.004669 
	C700.017456,406.394836 697.092163,408.172974 695.348877,408.191498 
	C674.573853,408.412262 653.794800,408.414642 633.019897,408.185852 
	C631.317139,408.167114 628.470459,406.278015 628.180481,404.847443 
	C627.490173,401.442169 630.500793,401.033691 633.123413,401.032318 
	C648.248840,401.024323 663.374207,401.056793 678.999390,401.075562 
z"/>
<path fill="#E0DDE7" opacity="1.000000" stroke="none" 
	d="
M629.606812,481.009125 
	C626.937683,476.227600 627.891113,474.259125 632.858459,474.215576 
	C646.331482,474.097534 659.808716,474.034912 673.276367,474.321930 
	C674.903748,474.356628 676.482544,476.673401 678.083862,477.932495 
	C676.818787,479.171143 675.560730,481.477051 674.287537,481.485443 
	C659.509277,481.583008 644.728699,481.333649 629.606812,481.009125 
z"/>
<path fill="#E0DDE7" opacity="1.000000" stroke="none" 
	d="
M669.730957,422.628174 
	C657.474854,422.628082 645.684998,422.642487 633.895325,422.616699 
	C631.221313,422.610840 628.084595,422.799469 627.976685,419.013306 
	C627.856506,414.794922 631.210510,415.140106 634.043457,415.136414 
	C646.663452,415.120026 659.283508,415.118317 671.903442,415.145996 
	C673.214111,415.148865 674.781555,414.982239 675.764832,415.615814 
	C676.823669,416.298096 677.938354,417.843384 677.913330,418.987793 
	C677.888916,420.105499 676.669678,421.754211 675.593262,422.161713 
	C673.968628,422.776825 672.012512,422.516418 669.730957,422.628174 
z"/>
<path fill="#E0DDE7" opacity="1.000000" stroke="none" 
	d="
M628.928894,532.657349 
	C626.644226,528.100037 628.671143,526.424927 632.728577,526.407043 
	C646.370300,526.346863 660.014709,526.277100 673.651367,526.549255 
	C675.152588,526.579224 676.610229,528.791016 678.088074,529.990845 
	C676.692505,531.285278 675.317688,533.677673 673.898315,533.704407 
	C659.763184,533.970703 645.620605,533.860535 631.480469,533.794189 
	C630.713928,533.790649 629.950073,533.230713 628.928894,532.657349 
z"/>
<path fill="#EDE4E8" opacity="1.000000" stroke="none" 
	d="
M528.226807,506.997864 
	C535.850830,513.848572 543.117859,513.794312 550.816162,507.575653 
	C552.177979,506.475586 554.793213,506.927124 556.829590,506.662109 
	C556.487610,508.642487 556.840027,511.270966 555.692993,512.500122 
	C546.994873,521.821228 531.981689,521.773560 523.804565,512.477722 
	C522.725830,511.251373 522.791687,509.018188 522.327393,507.251282 
	C524.206665,507.086700 526.085999,506.922119 528.226807,506.997864 
z"/>
<path fill="#ECE3E8" opacity="1.000000" stroke="none" 
	d="
M608.877930,401.319000 
	C608.682373,400.804962 608.792358,400.713654 608.961426,400.571106 
	C610.845337,399.317749 612.646790,397.742249 614.741089,396.868896 
	C616.603455,396.092224 618.790344,396.093750 620.834106,395.751801 
	C620.551819,397.774689 620.994507,400.451813 619.861694,401.707092 
	C614.977051,407.119720 609.591370,412.076904 604.471863,417.282227 
	C602.433350,419.354889 600.530579,419.489532 598.469666,417.471771 
	C597.046875,416.078705 595.257629,414.878662 594.338379,413.204620 
	C593.461121,411.606903 593.498169,409.507172 593.133240,407.628113 
	C595.149170,407.748474 597.185547,407.741241 599.169556,408.060211 
	C599.840332,408.168121 600.378357,409.101868 601.467529,410.113922 
	C604.065735,407.279388 606.572571,404.544556 608.877930,401.319000 
z"/>
<path fill="#ECE3E8" opacity="1.000000" stroke="none" 
	d="
M609.306152,459.907532 
	C609.055542,459.411163 608.962280,459.530426 608.910889,459.548279 
	C610.791138,458.319611 612.601379,456.780945 614.690308,455.913361 
	C616.570923,455.132355 619.499451,454.073486 620.658447,454.922272 
	C623.307251,456.862152 621.657410,459.228790 619.693054,461.151886 
	C614.701050,466.039093 609.694763,470.915894 604.843750,475.941223 
	C602.501099,478.368011 600.431702,478.595245 598.090027,476.128876 
	C596.830627,474.802399 595.107727,473.740570 594.319275,472.190369 
	C593.485901,470.551697 593.514282,468.474609 593.166260,466.589050 
	C595.187561,466.738068 597.230591,466.761475 599.218140,467.105682 
	C599.894531,467.222809 600.431030,468.147644 601.472839,469.111908 
	C604.239319,466.131836 606.898071,463.267853 609.306152,459.907532 
z"/>
<path fill="#1965D4" opacity="1.000000" stroke="none" 
	d="
M601.003418,561.000000 
	C601.003418,571.634033 601.003418,581.768127 601.003418,592.205811 
	C576.801819,592.205811 552.937561,592.205811 528.815674,592.205811 
	C528.690613,590.812134 528.503479,589.689270 528.502197,588.566162 
	C528.483521,572.426025 528.565247,556.285278 528.437256,540.146179 
	C528.405212,536.099548 529.940796,534.442932 533.990906,534.458679 
	C554.456970,534.538330 574.923645,534.530701 595.389771,534.459656 
	C599.322449,534.445984 601.186218,535.847229 601.058472,540.035278 
	C600.850647,546.851074 601.003052,553.677856 601.003418,561.000000 
M578.695557,549.795471 
	C572.365295,543.935059 565.124023,542.107300 557.100098,545.582275 
	C549.798645,548.744324 545.605347,554.539734 544.992004,562.523132 
	C544.332520,571.106750 550.069885,579.710938 557.950195,582.504150 
	C566.406494,585.501587 575.753296,582.492493 580.927429,575.106873 
	C586.443481,567.233215 585.804443,558.369934 578.695557,549.795471 
z"/>
<path fill="#1563D3" opacity="1.000000" stroke="none" 
	d="
M768.927673,676.707275 
	C766.554077,679.346985 764.289673,681.612244 762.025330,683.877502 
	C761.280457,683.528564 760.535645,683.179626 759.790833,682.830688 
	C759.790833,678.473389 759.743958,674.115540 759.801392,669.758972 
	C759.895386,662.634644 759.983582,655.508240 760.266663,648.390381 
	C760.311218,647.270325 761.268250,645.362122 761.979187,645.276428 
	C763.199890,645.129150 765.176575,645.762146 765.747925,646.717896 
	C767.671631,649.936096 770.308655,653.379822 770.486023,656.849060 
	C770.816101,663.302063 769.605957,669.833801 768.927673,676.707275 
z"/>
<path fill="#1563D3" opacity="1.000000" stroke="none" 
	d="
M437.577271,647.418823 
	C443.655945,657.205444 443.823456,667.123169 439.706421,677.208496 
	C438.348022,680.536133 435.854889,682.859863 430.769165,682.991089 
	C430.769165,676.372986 430.726562,669.996155 430.783051,663.620178 
	C430.825684,658.815002 430.851715,654.000610 431.196045,649.212708 
	C431.298676,647.785583 432.451630,646.434021 433.123352,645.047852 
	C434.523041,645.744324 435.922760,646.440796 437.577271,647.418823 
z"/>
<path fill="#1563D3" opacity="1.000000" stroke="none" 
	d="
M605.144775,645.975159 
	C610.171814,644.129333 612.155884,645.068970 612.328003,649.904358 
	C612.769714,662.315063 612.866516,674.739624 612.974976,687.159729 
	C613.009583,691.120117 613.082886,695.176331 612.270203,699.004333 
	C611.904724,700.725891 609.605347,702.640503 607.793396,703.197021 
	C606.885620,703.475769 604.628296,701.139099 603.844604,699.557617 
	C603.008789,697.870972 602.977234,695.681091 602.964233,693.708435 
	C602.876770,680.433716 602.782776,667.156982 602.958679,653.884460 
	C602.992249,651.350952 604.216553,648.833191 605.144775,645.975159 
z"/>
<path fill="#1965D4" opacity="1.000000" stroke="none" 
	d="
M647.524414,648.897156 
	C649.030701,644.111084 650.693604,643.560486 653.419312,647.007751 
	C655.225464,649.291931 656.803345,652.052490 657.518188,654.846680 
	C659.442810,662.369568 659.729065,670.076904 655.984863,677.128540 
	C654.558960,679.814148 651.553650,681.661133 649.268188,683.890320 
	C648.673950,683.530518 648.079712,683.170715 647.485474,682.810913 
	C647.485474,671.649597 647.485474,660.488281 647.524414,648.897156 
z"/>
<path fill="#1864D4" opacity="1.000000" stroke="none" 
	d="
M483.903625,646.210205 
	C484.584290,651.985413 485.319366,657.396851 485.399750,662.818054 
	C485.571625,674.408081 485.348724,686.003479 485.410461,697.596008 
	C485.429016,701.080383 483.364502,703.494751 480.579132,703.197083 
	C478.854919,703.012817 476.190735,699.679932 476.137146,697.701172 
	C475.714966,682.114258 475.581055,666.508301 475.890808,650.918762 
	C476.002777,645.282593 478.787689,643.934631 483.903625,646.210205 
z"/>
<path fill="#1864D4" opacity="1.000000" stroke="none" 
	d="
M804.700867,681.017944 
	C804.625122,672.401184 804.525085,664.281128 804.500427,656.160950 
	C804.494507,654.176208 804.457458,652.121460 804.929932,650.222107 
	C805.602417,647.518677 806.512451,643.946289 810.106628,644.992126 
	C811.861633,645.502747 813.915222,648.692200 813.976929,650.725464 
	C814.433411,665.775330 814.425659,680.839355 814.547668,695.898987 
	C814.552917,696.557556 814.298950,697.223633 814.338867,697.875610 
	C814.541199,701.180054 812.314575,703.478394 809.796082,703.150146 
	C807.986206,702.914307 805.597229,699.974915 805.162537,697.888306 
	C804.365234,694.061340 804.817505,689.973572 804.753967,685.994446 
	C804.730103,684.501343 804.720459,683.007935 804.700867,681.017944 
z"/>
<path fill="#1A66D4" opacity="1.000000" stroke="none" 
	d="
M716.250732,681.453003 
	C715.740967,670.198486 715.403503,659.267517 715.337769,648.335022 
	C715.331482,647.288208 717.145996,645.271973 717.894775,645.371094 
	C719.656250,645.604248 721.973816,646.398315 722.851868,647.752747 
	C727.662598,655.173157 728.146606,663.347168 725.845093,671.707214 
	C725.237305,673.914673 724.374939,676.341797 722.857483,677.930908 
	C721.206238,679.660095 718.656372,680.531128 716.250732,681.453003 
z"/>
<path fill="#1A66D4" opacity="1.000000" stroke="none" 
	d="
M386.226349,652.300110 
	C387.119415,649.616943 388.008820,647.397278 388.898254,645.177673 
	C390.995026,646.721863 394.026276,647.814697 395.027527,649.887939 
	C399.476532,659.100403 399.558777,668.548523 394.160370,677.484314 
	C392.871948,679.617004 390.291199,680.968933 388.304840,682.679932 
	C387.610779,682.392517 386.916748,682.105042 386.222687,681.817566 
	C386.222687,672.132935 386.222687,662.448242 386.226349,652.300110 
z"/>
<path fill="#1864D4" opacity="1.000000" stroke="none" 
	d="
M557.696777,440.845154 
	C544.309082,440.847015 531.391602,440.847015 518.565979,440.847015 
	C516.797485,432.217651 520.292358,426.862122 528.432068,426.327881 
	C535.702026,425.850739 543.044067,425.929108 550.324829,426.316071 
	C557.099426,426.676117 561.253723,431.236572 561.019104,437.601593 
	C560.978088,438.715698 559.162903,439.764404 557.696777,440.845154 
z"/>
<path fill="#EDE4E8" opacity="1.000000" stroke="none" 
	d="
M578.919739,550.082031 
	C585.804443,558.369934 586.443481,567.233215 580.927429,575.106873 
	C575.753296,582.492493 566.406494,585.501587 557.950195,582.504150 
	C550.069885,579.710938 544.332520,571.106750 544.992004,562.523132 
	C545.605347,554.539734 549.798645,548.744324 557.100098,545.582275 
	C565.124023,542.107300 572.365295,543.935059 578.919739,550.082031 
M562.282166,551.532776 
	C553.650757,553.055054 549.850098,562.758240 553.346802,569.273804 
	C556.441833,575.041016 563.120911,577.820618 569.059875,575.692810 
	C574.687012,573.676697 578.130676,567.771118 577.187561,561.754822 
	C576.140381,555.075012 570.848145,551.164612 562.282166,551.532776 
z"/>
<path fill="#1563D3" opacity="1.000000" stroke="none" 
	d="
M562.657837,551.414673 
	C570.848145,551.164612 576.140381,555.075012 577.187561,561.754822 
	C578.130676,567.771118 574.687012,573.676697 569.059875,575.692810 
	C563.120911,577.820618 556.441833,575.041016 553.346802,569.273804 
	C549.850098,562.758240 553.650757,553.055054 562.657837,551.414673 
z"/>
</svg>